{
  "accessors": [
    {
      "bufferView": 2,
      "componentType": 5126,
      "count": 2039,
      "max": [
        0.9904199838638306,
        0.9904199838638306,
        0.9990000128746033
      ],
      "min": [
        -0.9904199838638306,
        -0.9904199838638306,
        -0.9990000128746033
      ],
      "type": "VEC3"
    },
    {
      "bufferView": 2,
      "byteOffset": 24468,
      "componentType": 5126,
      "count": 2039,
      "max": [
        1.0,
        1.0,
        1.0
      ],
      "min": [
        -1.0,
        -1.0,
        -1.0
      ],
      "type": "VEC3"
    },
    {
      "bufferView": 1,
      "componentType": 5126,
      "count": 2039,
      "max": [
        0.9710900187492371,
        0.9906899929046631
      ],
      "min": [
        -0.0254100002348423,
        -0.011009999550879002
      ],
      "type": "VEC2"
    },
    {
      "bufferView": 0,
      "componentType": 5125,
      "count": 11904,
      "type": "SCALAR"
    }
  ],
  "asset": {
    "extras": {
      "author": "Johana-PS (https://sketchfab.com/Johana-PS)",
      "license": "CC-BY-4.0 (http://creativecommons.org/licenses/by/4.0/)",
      "source": "https://sketchfab.com/3d-models/free-3d-eye-model-b2e0231d007a4e62943e3079ca1ecf9b",
      "title": "Free 3D Eye Model"
    },
    "generator": "Sketchfab-12.65.0",
    "version": "2.0"
  },
  "bufferViews": [
    {
      "buffer": 0,
      "byteLength": 47616,
      "name": "floatBufferViews",
      "target": 34963
    },
    {
      "buffer": 0,
      "byteLength": 16312,
      "byteOffset": 47616,
      "byteStride": 8,
      "name": "floatBufferViews",
      "target": 34962
    },
    {
      "buffer": 0,
      "byteLength": 48936,
      "byteOffset": 63928,
      "byteStride": 12,
      "name": "floatBufferViews",
      "target": 34962
    }
  ],
  "buffers": [
    {
      "byteLength": 112864,
      "uri": "scene.bin"
    }
  ],
  "images": [
    {
      "uri": "textures/Material.001_baseColor.jpeg"
    }
  ],
  "materials": [
    {
      "doubleSided": true,
      "name": "Material.001",
      "pbrMetallicRoughness": {
        "baseColorTexture": {
          "index": 0
        },
        "metallicFactor": 0.0,
        "roughnessFactor": 0.19950457320000003
      }
    }
  ],
  "meshes": [
    {
      "name": "Sphere_0",
      "primitives": [
        {
          "attributes": {
            "NORMAL": 1,
            "POSITION": 0,
            "TEXCOORD_0": 2
          },
          "indices": 3,
          "material": 0,
          "mode": 4
        }
      ]
    }
  ],
  "nodes": [
    {
      "children": [
        1
      ],
      "matrix": [
        1.0,
        0.0,
        0.0,
        0.0,
        0.0,
        2.220446049250313e-16,
        -1.0,
        0.0,
        0.0,
        1.0,
        2.220446049250313e-16,
        0.0,
        0.0,
        0.0,
        0.0,
        1.0
      ],
      "name": "Sketchfab_model"
    },
    {
      "children": [
        2,
        4
      ],
      "name": "Root"
    },
    {
      "children": [
        3
      ],
      "matrix": [
        -0.29086000000000006,
        0.9551700000000001,
        -0.05519000000000001,
        0.0,
        -0.7711,
        -0.19988000000000003,
        0.6045200000000001,
        0.0,
        0.5663900000000001,
        0.21839000000000003,
        0.7946700000000001,
        0.0,
        3.50949,
        -0.31703000000000003,
        2.03479,
        1.0
      ],
      "name": "Lamp"
    },
    {
      "name": "Lamp"
    },
    {
      "children": [
        5
      ],
      "matrix": [
        0.0011900000000000003,
        -0.09050000000000002,
        -0.9959,
        0.0,
        0.021530000000000004,
        0.99567,
        -0.09045000000000002,
        0.0,
        0.99977,
        -0.021340000000000005,
        0.003140000000000001,
        0.0,
        0.0,
        0.0,
        0.0,
        1.0
      ],
      "name": "Sphere"
    },
    {
      "mesh": 0,
      "name": "Sphere_0"
    }
  ],
  "samplers": [
    {
      "magFilter": 9729,
      "minFilter": 9987,
      "wrapS": 10497,
      "wrapT": 10497
    }
  ],
  "scene": 0,
  "scenes": [
    {
      "name": "Sketchfab_Scene",
      "nodes": [
        0
      ]
    }
  ],
  "textures": [
    {
      "sampler": 0,
      "source": 0
    }
  ]
}
