{
  "accessors": [
    {
      "bufferView": 2,
      "componentType": 5126,
      "count": 6600,
      "max": [
        7.257744312286377,
        20.766448974609375,
        1.4305064678192139
      ],
      "min": [
        -7.257744312286377,
        -0.5527554154396057,
        -5.638120651245117
      ],
      "type": "VEC3"
    },
    {
      "bufferView": 2,
      "byteOffset": 79200,
      "componentType": 5126,
      "count": 6600,
      "max": [
        0.999814510345459,
        0.9989217519760132,
        0.9998788237571716
      ],
      "min": [
        -0.999814510345459,
        -0.9999142289161682,
        -0.9999454617500305
      ],
      "type": "VEC3"
    },
    {
      "bufferView": 3,
      "componentType": 5126,
      "count": 6600,
      "max": [
        0.9999992847442627,
        0.999980628490448,
        0.9998505115509033,
        1.0
      ],
      "min": [
        -0.9999894499778748,
        -0.9999839067459106,
        -0.9965962171554565,
        -1.0
      ],
      "type": "VEC4"
    },
    {
      "bufferView": 1,
      "componentType": 5126,
      "count": 6600,
      "max": [
        0.9952024817466736,
        0.9937425851821899
      ],
      "min": [
        0.00598493218421936,
        0.01535266637802124
      ],
      "type": "VEC2"
    },
    {
      "bufferView": 1,
      "byteOffset": 52800,
      "componentType": 5126,
      "count": 6600,
      "max": [
        0.9952024817466736,
        0.9937425851821899
      ],
      "min": [
        0.00598493218421936,
        0.01535266637802124
      ],
      "type": "VEC2"
    },
    {
      "bufferView": 1,
      "byteOffset": 105600,
      "componentType": 5126,
      "count": 6600,
      "max": [
        0.9952024817466736,
        0.9937425851821899
      ],
      "min": [
        0.00598493218421936,
        0.01535266637802124
      ],
      "type": "VEC2"
    },
    {
      "bufferView": 1,
      "byteOffset": 158400,
      "componentType": 5126,
      "count": 6600,
      "max": [
        0.9952024817466736,
        0.9937425851821899
      ],
      "min": [
        0.00598493218421936,
        0.01535266637802124
      ],
      "type": "VEC2"
    },
    {
      "bufferView": 0,
      "componentType": 5125,
      "count": 35646,
      "type": "SCALAR"
    },
    {
      "bufferView": 2,
      "byteOffset": 158400,
      "componentType": 5126,
      "count": 211,
      "max": [
        0.22265194356441498,
        15.713791847229004,
        1.2400968074798584
      ],
      "min": [
        -0.20171231031417847,
        15.014078140258789,
        0.5442726016044617
      ],
      "type": "VEC3"
    },
    {
      "bufferView": 2,
      "byteOffset": 160932,
      "componentType": 5126,
      "count": 211,
      "max": [
        0.9931318163871765,
        0.996609091758728,
        0.9998958706855774
      ],
      "min": [
        -0.9931318759918213,
        -0.9999723434448242,
        -0.9954726696014404
      ],
      "type": "VEC3"
    },
    {
      "bufferView": 1,
      "byteOffset": 211200,
      "componentType": 5126,
      "count": 211,
      "max": [
        0.7499998211860657,
        1.0
      ],
      "min": [
        0.25,
        0.5
      ],
      "type": "VEC2"
    },
    {
      "bufferView": 0,
      "byteOffset": 142584,
      "componentType": 5125,
      "count": 1140,
      "type": "SCALAR"
    },
    {
      "bufferView": 2,
      "byteOffset": 163464,
      "componentType": 5126,
      "count": 196,
      "max": [
        0.863489031791687,
        19.28445053100586,
        0.4458829164505005
      ],
      "min": [
        -0.863489031791687,
        18.716690063476563,
        0.14635802805423737
      ],
      "type": "VEC3"
    },
    {
      "bufferView": 2,
      "byteOffset": 165816,
      "componentType": 5126,
      "count": 196,
      "max": [
        0.9959108233451843,
        1.0,
        0.9807808995246887
      ],
      "min": [
        -0.9959108233451843,
        -1.0,
        -0.9807807207107544
      ],
      "type": "VEC3"
    },
    {
      "bufferView": 1,
      "byteOffset": 212888,
      "componentType": 5126,
      "count": 196,
      "max": [
        1.0,
        1.0
      ],
      "min": [
        0.0,
        0.0
      ],
      "type": "VEC2"
    },
    {
      "bufferView": 0,
      "byteOffset": 147144,
      "componentType": 5125,
      "count": 864,
      "type": "SCALAR"
    },
    {
      "bufferView": 2,
      "byteOffset": 168168,
      "componentType": 5126,
      "count": 108,
      "max": [
        1.7064201831817627,
        19.150806427001953,
        0.24091003835201263
      ],
      "min": [
        -1.7064197063446045,
        18.698795318603516,
        -0.0031115934252738953
      ],
      "type": "VEC3"
    },
    {
      "bufferView": 2,
      "byteOffset": 169464,
      "componentType": 5126,
      "count": 108,
      "max": [
        0.9982784986495972,
        0.794522762298584,
        0.9925986528396606
      ],
      "min": [
        -0.9982786774635315,
        -0.8586876392364502,
        -0.9925980567932129
      ],
      "type": "VEC3"
    },
    {
      "bufferView": 1,
      "byteOffset": 214456,
      "componentType": 5126,
      "count": 108,
      "max": [
        1.0,
        0.9999499917030334
      ],
      "min": [
        0.0,
        0.0
      ],
      "type": "VEC2"
    },
    {
      "bufferView": 0,
      "byteOffset": 150600,
      "componentType": 5125,
      "count": 144,
      "type": "SCALAR"
    },
    {
      "bufferView": 2,
      "byteOffset": 170760,
      "componentType": 5126,
      "count": 6600,
      "max": [
        7.257744312286377,
        20.766448974609375,
        1.4305064678192139
      ],
      "min": [
        -7.257744312286377,
        -0.7296095490455627,
        -5.638120651245117
      ],
      "type": "VEC3"
    },
    {
      "bufferView": 2,
      "byteOffset": 249960,
      "componentType": 5126,
      "count": 6600,
      "max": [
        0.999814510345459,
        0.9999142289161682,
        0.9999454021453857
      ],
      "min": [
        -0.999814510345459,
        -0.9999406933784485,
        -0.9999869465827942
      ],
      "type": "VEC3"
    },
    {
      "bufferView": 1,
      "byteOffset": 215320,
      "componentType": 5126,
      "count": 6600,
      "max": [
        0.9952024817466736,
        0.9937425851821899
      ],
      "min": [
        0.00598493218421936,
        0.01535266637802124
      ],
      "type": "VEC2"
    },
    {
      "bufferView": 0,
      "byteOffset": 151176,
      "componentType": 5125,
      "count": 35646,
      "type": "SCALAR"
    }
  ],
  "asset": {
    "extras": {
      "author": "Jessykat (https://sketchfab.com/Jessykat)",
      "license": "CC-BY-4.0 (http://creativecommons.org/licenses/by/4.0/)",
      "source": "https://sketchfab.com/3d-models/him-powerpuff-girls-885a4bf16a604792a6735811f0272309",
      "title": "HIM PowerPuff Girls"
    },
    "generator": "Sketchfab-12.68.0",
    "version": "2.0"
  },
  "bufferViews": [
    {
      "buffer": 0,
      "byteLength": 293760,
      "name": "floatBufferViews",
      "target": 34963
    },
    {
      "buffer": 0,
      "byteLength": 268120,
      "byteOffset": 293760,
      "byteStride": 8,
      "name": "floatBufferViews",
      "target": 34962
    },
    {
      "buffer": 0,
      "byteLength": 329160,
      "byteOffset": 561880,
      "byteStride": 12,
      "name": "floatBufferViews",
      "target": 34962
    },
    {
      "buffer": 0,
      "byteLength": 105600,
      "byteOffset": 891040,
      "byteStride": 16,
      "name": "floatBufferViews",
      "target": 34962
    }
  ],
  "buffers": [
    {
      "byteLength": 996640,
      "uri": "scene.bin"
    }
  ],
  "images": [
    {
      "uri": "textures/StingrayPBS1_baseColor.png"
    },
    {
      "uri": "textures/StingrayPBS1_metallicRoughness.png"
    },
    {
      "uri": "textures/StingrayPBS1_normal.png"
    }
  ],
  "materials": [
    {
      "doubleSided": true,
      "name": "StingrayPBS1",
      "normalTexture": {
        "index": 2
      },
      "pbrMetallicRoughness": {
        "baseColorTexture": {
          "index": 0
        },
        "metallicRoughnessTexture": {
          "index": 1
        }
      }
    },
    {
      "doubleSided": true,
      "name": "mustach",
      "pbrMetallicRoughness": {
        "baseColorFactor": [
          0.01101123050028984,
          0.01101123050028984,
          0.01101123050028984,
          1.0
        ],
        "metallicFactor": 0.7517149390243902,
        "roughnessFactor": 0.6
      }
    },
    {
      "doubleSided": true,
      "name": "eyes",
      "pbrMetallicRoughness": {
        "baseColorFactor": [
          0.0,
          0.0,
          0.0,
          1.0
        ],
        "metallicFactor": 0.23951981707317074,
        "roughnessFactor": 0.532202743902439
      }
    },
    {
      "doubleSided": true,
      "name": "lambert1",
      "pbrMetallicRoughness": {
        "baseColorFactor": [
          0.0,
          0.0,
          0.0,
          1.0
        ],
        "metallicFactor": 0.0,
        "roughnessFactor": 0.6
      }
    },
    {
      "name": "fake1",
      "pbrMetallicRoughness": {
        "baseColorFactor": [
          0.0,
          0.0,
          0.0,
          1.0
        ],
        "metallicFactor": 0.0,
        "roughnessFactor": 0.6
      }
    }
  ],
  "meshes": [
    {
      "name": "original_StingrayPBS1_0",
      "primitives": [
        {
          "attributes": {
            "NORMAL": 1,
            "POSITION": 0,
            "TANGENT": 2,
            "TEXCOORD_0": 3,
            "TEXCOORD_1": 4,
            "TEXCOORD_2": 5,
            "TEXCOORD_3": 6
          },
          "indices": 7,
          "material": 0,
          "mode": 4
        }
      ]
    },
    {
      "name": "beard_mustach_0",
      "primitives": [
        {
          "attributes": {
            "NORMAL": 9,
            "POSITION": 8,
            "TEXCOORD_0": 10
          },
          "indices": 11,
          "material": 1,
          "mode": 4
        }
      ]
    },
    {
      "name": "eyes1_eyes_0",
      "primitives": [
        {
          "attributes": {
            "NORMAL": 13,
            "POSITION": 12,
            "TEXCOORD_0": 14
          },
          "indices": 15,
          "material": 2,
          "mode": 4
        }
      ]
    },
    {
      "name": "eyelashes_lambert1_0",
      "primitives": [
        {
          "attributes": {
            "NORMAL": 17,
            "POSITION": 16,
            "TEXCOORD_0": 18
          },
          "indices": 19,
          "material": 3,
          "mode": 4
        }
      ]
    },
    {
      "name": "fake_fake1_0",
      "primitives": [
        {
          "attributes": {
            "NORMAL": 21,
            "POSITION": 20,
            "TEXCOORD_0": 22
          },
          "indices": 23,
          "material": 4,
          "mode": 4
        }
      ]
    }
  ],
  "nodes": [
    {
      "children": [
        1
      ],
      "matrix": [
        1.0,
        0.0,
        0.0,
        0.0,
        0.0,
        2.220446049250313e-16,
        -1.0,
        0.0,
        0.0,
        1.0,
        2.220446049250313e-16,
        0.0,
        0.0,
        0.0,
        0.0,
        1.0
      ],
      "name": "Sketchfab_model"
    },
    {
      "children": [
        2
      ],
      "matrix": [
        1.0,
        0.0,
        0.0,
        0.0,
        0.0,
        0.0,
        1.0,
        0.0,
        0.0,
        -1.0,
        0.0,
        0.0,
        0.0,
        0.0,
        0.0,
        1.0
      ],
      "name": "86722d78f38340a7a01b262a3cd27026.fbx"
    },
    {
      "children": [
        3,
        5,
        7,
        9,
        11
      ],
      "name": "RootNode"
    },
    {
      "children": [
        4
      ],
      "name": "original"
    },
    {
      "mesh": 0,
      "name": "original_StingrayPBS1_0"
    },
    {
      "children": [
        6
      ],
      "name": "beard"
    },
    {
      "mesh": 1,
      "name": "beard_mustach_0"
    },
    {
      "children": [
        8
      ],
      "name": "eyes1"
    },
    {
      "mesh": 2,
      "name": "eyes1_eyes_0"
    },
    {
      "children": [
        10
      ],
      "matrix": [
        1.0,
        0.0,
        0.0,
        0.0,
        0.0,
        1.0,
        0.0,
        0.0,
        0.0,
        0.0,
        1.0,
        0.0,
        0.0,
        0.0,
        0.021024715155363083,
        1.0
      ],
      "name": "eyelashes"
    },
    {
      "mesh": 3,
      "name": "eyelashes_lambert1_0"
    },
    {
      "children": [
        12
      ],
      "matrix": [
        1.0193475484848022,
        0.0,
        0.0,
        0.0,
        0.0,
        1.0193475484848022,
        0.0,
        0.0,
        0.0,
        0.0,
        1.0193475484848022,
        0.0,
        0.0,
        -0.24923740327358246,
        0.040703561156988144,
        1.0
      ],
      "name": "fake"
    },
    {
      "mesh": 4,
      "name": "fake_fake1_0"
    }
  ],
  "samplers": [
    {
      "magFilter": 9729,
      "minFilter": 9987,
      "wrapS": 10497,
      "wrapT": 10497
    }
  ],
  "scene": 0,
  "scenes": [
    {
      "name": "Sketchfab_Scene",
      "nodes": [
        0
      ]
    }
  ],
  "textures": [
    {
      "sampler": 0,
      "source": 0
    },
    {
      "sampler": 0,
      "source": 1
    },
    {
      "sampler": 0,
      "source": 2
    }
  ]
}
